<svg xmlns="http://www.w3.org/2000/svg" version="1.1" xmlns:xlink="http://www.w3.org/1999/xlink" xmlns:svgjs="http://svgjs.dev/svgjs" width="1440" height="560" preserveAspectRatio="none" viewBox="0 0 1440 560"><g mask="url(&quot;#SvgjsMask1000&quot;)" fill="none"><rect width="1440" height="560" x="0" y="0" fill="#0e2a47"></rect><path d="M390.4 111.71 a19.67 19.67 0 1 0 39.34 0 a19.67 19.67 0 1 0 -39.34 0z" stroke="#d3b714"></path><path d="M108.78 117.65L156.71 117.65L156.71 154.44L108.78 154.44z" fill="#d3b714"></path><path d="M1271.84 322.99L1287.21 322.99L1287.21 375.03L1271.84 375.03z" fill="#037b0b"></path><path d="M1295.22 96.2 a25.8 25.8 0 1 0 51.6 0 a25.8 25.8 0 1 0 -51.6 0z" stroke="#d3b714"></path><path d="M504.35 370.63L516.79 370.63L516.79 413.6L504.35 413.6z" stroke="#d3b714"></path><path d="M687.33 132.31 a0.22 0.22 0 1 0 0.44 0 a0.22 0.22 0 1 0 -0.44 0z" stroke="#e73635"></path><path d="M1221.7 355.39L1235.59 355.39L1235.59 375.23L1221.7 375.23z" stroke="#e73635"></path><path d="M534.75 93.29L548.78 93.29L548.78 107.32L534.75 107.32z" stroke="#e73635"></path><path d="M251.35-7.58a15.19 15.19 0 1 0 20.89 22.06z" fill="#d3b714"></path><path d="M191.25 546.47 a54.18 54.18 0 1 0 108.36 0 a54.18 54.18 0 1 0 -108.36 0z" fill="#d3b714"></path><path d="M1332.03 338.49a39.95 39.95 0 1 0 22.18-76.76z" stroke="#037b0b"></path><path d="M973.42 33.89L1025.26 33.89L1025.26 85.73L973.42 85.73z" fill="#e73635"></path><path d="M227.47 391 a30.01 30.01 0 1 0 60.02 0 a30.01 30.01 0 1 0 -60.02 0z" stroke="#e73635"></path><path d="M656.61 250.96L682.49 250.96L682.49 266.11L656.61 266.11z" stroke="#e73635"></path><path d="M747.87 72.49a2.48 2.48 0 1 0 4.06-2.85z" stroke="#e73635"></path><path d="M955.39 372.5L993.69 372.5L993.69 410.81L955.39 410.81z" stroke="#037b0b"></path><path d="M717.84 311.64 a43.28 43.28 0 1 0 86.56 0 a43.28 43.28 0 1 0 -86.56 0z" fill="#037b0b"></path><path d="M673.39 183.37L681.45 183.37L681.45 191.43L673.39 191.43z" stroke="#e73635"></path><path d="M1237.93 205.38a36.66 36.66 0 1 0 62.44 38.44z" fill="#037b0b"></path><path d="M352.35 473.86 a50.96 50.96 0 1 0 101.92 0 a50.96 50.96 0 1 0 -101.92 0z" fill="#037b0b"></path><path d="M1090.96 326.51 a24.13 24.13 0 1 0 48.26 0 a24.13 24.13 0 1 0 -48.26 0z" stroke="#037b0b"></path><path d="M134.91 125.68L154 125.68L154 144.77L134.91 144.77z" stroke="#037b0b"></path><path d="M408.04 273.09L418.72 273.09L418.72 283.77L408.04 283.77z" stroke="#037b0b"></path><path d="M219.04 95.46L227.44 95.46L227.44 103.86L219.04 103.86z" fill="#e73635"></path><path d="M72.96 472.45a35.52 35.52 0 1 0 45.13-54.86z" stroke="#e73635"></path><path d="M691 267.05a25.1 25.1 0 1 0 0.16-50.2z" stroke="#037b0b"></path><path d="M70.09 369.66L110.27 369.66L110.27 376.29L70.09 376.29z" fill="#037b0b"></path><path d="M539.38 427.63L549.82 427.63L549.82 438.07L539.38 438.07z" stroke="#e73635"></path><path d="M697.64 470.71L733.32 470.71L733.32 506.39L697.64 506.39z" stroke="#e73635"></path><path d="M780.51 366.74 a44.51 44.51 0 1 0 89.02 0 a44.51 44.51 0 1 0 -89.02 0z" stroke="#e73635"></path><path d="M1378.41 441.88L1424.67 441.88L1424.67 488.14L1378.41 488.14z" fill="#e73635"></path><path d="M569.7 67.14L617.01 67.14L617.01 114.45L569.7 114.45z" fill="#037b0b"></path><path d="M324.38 112.92L365.08 112.92L365.08 123.78L324.38 123.78z" stroke="#d3b714"></path></g><defs><mask id="SvgjsMask1000"><rect width="1440" height="560" fill="#ffffff"></rect></mask></defs></svg>