<svg xmlns="http://www.w3.org/2000/svg" version="1.1" xmlns:xlink="http://www.w3.org/1999/xlink" xmlns:svgjs="http://svgjs.dev/svgjs" width="1440" height="560" preserveAspectRatio="none" viewBox="0 0 1440 560"><g mask="url(&quot;#SvgjsMask1000&quot;)" fill="none"><rect width="1440" height="560" x="0" y="0" fill="#0e2a47"></rect><path d="M258.34 582.74C416.5 549.93 476.14 147.02 729.24 140.34 982.35 133.66 964.69 210.34 1200.15 210.34 1435.6 210.34 1552.03 140.53 1671.05 140.34" stroke="rgba(51,121,194,0.58)" stroke-width="2"></path><path d="M883.66 647.45C1025.53 612.97 1047.26 255.43 1292.58 230.49 1537.89 205.55 1593.89 97.8 1701.49 96.09" stroke="rgba(51,121,194,0.58)" stroke-width="2"></path><path d="M728.28 655.4C854.11 627.84 906.51 299.35 1098.87 297.43 1291.22 295.51 1369.43 445.76 1469.45 448.63" stroke="rgba(51,121,194,0.58)" stroke-width="2"></path><path d="M816 671.37C917.45 635.21 842.15 358.45 1083.22 333.45 1324.28 308.45 1474.4 129.83 1617.65 126.25" stroke="rgba(51,121,194,0.58)" stroke-width="2"></path><path d="M913.38 645.56C1016.34 607.84 978.61 299.66 1182.69 299.36 1386.76 299.06 1575 524.24 1721.3 528.96" stroke="rgba(51,121,194,0.58)" stroke-width="2"></path></g><defs><mask id="SvgjsMask1000"><rect width="1440" height="560" fill="#ffffff"></rect></mask></defs></svg>