<svg xmlns="http://www.w3.org/2000/svg" version="1.1" xmlns:xlink="http://www.w3.org/1999/xlink" xmlns:svgjs="http://svgjs.dev/svgjs" width="1440" height="560" preserveAspectRatio="none" viewBox="0 0 1440 560"><g mask="url(&quot;#SvgjsMask1000&quot;)" fill="none"><rect width="1440" height="560" x="0" y="0" fill="#0e2a47"></rect><path d="M128.34 55.71L193.3 93.21L193.3 168.21L128.34 205.71L63.39 168.21L63.39 93.21zM128.34 280.71L193.3 318.21L193.3 393.21L128.34 430.71L63.39 393.21L63.39 318.21zM128.34 505.71L193.3 543.21L193.3 618.21L128.34 655.71L63.39 618.21L63.39 543.21zM193.3 -56.79L258.25 -19.29L258.25 55.71L193.3 93.21L128.34 55.71L128.34 -19.29zM258.25 55.71L323.2 93.21L323.2 168.21L258.25 205.71L193.3 168.21L193.3 93.21zM193.3 168.21L258.25 205.71L258.25 280.71L193.3 318.21L128.34 280.71L128.34 205.71zM388.16 55.71L453.11 93.21L453.11 168.21L388.16 205.71L323.2 168.21L323.2 93.21zM323.2 393.21L388.16 430.71L388.16 505.71L323.2 543.21L258.25 505.71L258.25 430.71zM453.11 393.21L518.07 430.71L518.07 505.71L453.11 543.21L388.16 505.71L388.16 430.71zM583.02 -56.79L647.97 -19.29L647.97 55.71L583.02 93.21L518.07 55.71L518.07 -19.29zM647.97 55.71L712.93 93.21L712.93 168.21L647.97 205.71L583.02 168.21L583.02 93.21zM583.02 168.21L647.97 205.71L647.97 280.71L583.02 318.21L518.07 280.71L518.07 205.71zM583.02 393.21L647.97 430.71L647.97 505.71L583.02 543.21L518.07 505.71L518.07 430.71zM712.93 -56.79L777.88 -19.29L777.88 55.71L712.93 93.21L647.97 55.71L647.97 -19.29zM777.88 55.71L842.84 93.21L842.84 168.21L777.88 205.71L712.93 168.21L712.93 93.21zM777.88 280.71L842.84 318.21L842.84 393.21L777.88 430.71L712.93 393.21L712.93 318.21zM907.79 280.71L972.74 318.21L972.74 393.21L907.79 430.71L842.83 393.21L842.83 318.21zM842.83 393.21L907.79 430.71L907.79 505.71L842.83 543.21L777.88 505.71L777.88 430.71zM972.74 -56.79L1037.7 -19.29L1037.7 55.71L972.74 93.21L907.79 55.71L907.79 -19.29zM972.74 168.21L1037.7 205.71L1037.7 280.71L972.74 318.21L907.79 280.71L907.79 205.71zM1037.7 280.71L1102.65 318.21L1102.65 393.21L1037.7 430.71L972.74 393.21L972.74 318.21zM972.74 393.21L1037.7 430.71L1037.7 505.71L972.74 543.21L907.79 505.71L907.79 430.71zM1037.7 505.71L1102.65 543.21L1102.65 618.21L1037.7 655.71L972.74 618.21L972.74 543.21zM1102.65 -56.79L1167.6 -19.29L1167.6 55.71L1102.65 93.21L1037.7 55.71L1037.7 -19.29zM1102.65 168.21L1167.6 205.71L1167.6 280.71L1102.65 318.21L1037.7 280.71L1037.7 205.71zM1167.6 280.71L1232.56 318.21L1232.56 393.21L1167.6 430.71L1102.65 393.21L1102.65 318.21zM1102.65 393.21L1167.6 430.71L1167.6 505.71L1102.65 543.21L1037.7 505.71L1037.7 430.71zM1167.6 505.71L1232.56 543.21L1232.56 618.21L1167.6 655.71L1102.65 618.21L1102.65 543.21zM1297.51 55.71L1362.46 93.21L1362.46 168.21L1297.51 205.71L1232.56 168.21L1232.56 93.21zM1232.56 168.21L1297.51 205.71L1297.51 280.71L1232.56 318.21L1167.6 280.71L1167.6 205.71zM1297.51 505.71L1362.46 543.21L1362.46 618.21L1297.51 655.71L1232.56 618.21L1232.56 543.21zM1362.47 -56.79L1427.42 -19.29L1427.42 55.71L1362.47 93.21L1297.51 55.71L1297.51 -19.29zM1362.47 168.21L1427.42 205.71L1427.42 280.71L1362.47 318.21L1297.51 280.71L1297.51 205.71zM1427.42 280.71L1492.37 318.21L1492.37 393.21L1427.42 430.71L1362.47 393.21L1362.47 318.21zM1427.42 505.71L1492.37 543.21L1492.37 618.21L1427.42 655.71L1362.47 618.21L1362.47 543.21zM1557.33 55.71L1622.28 93.21L1622.28 168.21L1557.33 205.71L1492.37 168.21L1492.37 93.21zM1492.37 168.21L1557.33 205.71L1557.33 280.71L1492.37 318.21L1427.42 280.71L1427.42 205.71zM1557.33 280.71L1622.28 318.21L1622.28 393.21L1557.33 430.71L1492.37 393.21L1492.37 318.21zM1492.37 393.21L1557.33 430.71L1557.33 505.71L1492.37 543.21L1427.42 505.71L1427.42 430.71z" stroke="#03305d" stroke-width="2"></path><path d="M120.84 55.71 a7.5 7.5 0 1 0 15 0 a7.5 7.5 0 1 0 -15 0zM185.8 93.21 a7.5 7.5 0 1 0 15 0 a7.5 7.5 0 1 0 -15 0zM185.8 168.21 a7.5 7.5 0 1 0 15 0 a7.5 7.5 0 1 0 -15 0zM120.84 205.71 a7.5 7.5 0 1 0 15 0 a7.5 7.5 0 1 0 -15 0zM55.89 168.21 a7.5 7.5 0 1 0 15 0 a7.5 7.5 0 1 0 -15 0zM55.89 93.21 a7.5 7.5 0 1 0 15 0 a7.5 7.5 0 1 0 -15 0zM120.84 280.71 a7.5 7.5 0 1 0 15 0 a7.5 7.5 0 1 0 -15 0zM185.8 318.21 a7.5 7.5 0 1 0 15 0 a7.5 7.5 0 1 0 -15 0zM185.8 393.21 a7.5 7.5 0 1 0 15 0 a7.5 7.5 0 1 0 -15 0zM120.84 430.71 a7.5 7.5 0 1 0 15 0 a7.5 7.5 0 1 0 -15 0zM55.89 393.21 a7.5 7.5 0 1 0 15 0 a7.5 7.5 0 1 0 -15 0zM55.89 318.21 a7.5 7.5 0 1 0 15 0 a7.5 7.5 0 1 0 -15 0zM120.84 505.71 a7.5 7.5 0 1 0 15 0 a7.5 7.5 0 1 0 -15 0zM185.8 543.21 a7.5 7.5 0 1 0 15 0 a7.5 7.5 0 1 0 -15 0zM185.8 618.21 a7.5 7.5 0 1 0 15 0 a7.5 7.5 0 1 0 -15 0zM120.84 655.71 a7.5 7.5 0 1 0 15 0 a7.5 7.5 0 1 0 -15 0zM55.89 618.21 a7.5 7.5 0 1 0 15 0 a7.5 7.5 0 1 0 -15 0zM55.89 543.21 a7.5 7.5 0 1 0 15 0 a7.5 7.5 0 1 0 -15 0zM185.8 -56.79 a7.5 7.5 0 1 0 15 0 a7.5 7.5 0 1 0 -15 0zM250.75 -19.29 a7.5 7.5 0 1 0 15 0 a7.5 7.5 0 1 0 -15 0zM250.75 55.71 a7.5 7.5 0 1 0 15 0 a7.5 7.5 0 1 0 -15 0zM120.84 -19.29 a7.5 7.5 0 1 0 15 0 a7.5 7.5 0 1 0 -15 0zM315.7 93.21 a7.5 7.5 0 1 0 15 0 a7.5 7.5 0 1 0 -15 0zM315.7 168.21 a7.5 7.5 0 1 0 15 0 a7.5 7.5 0 1 0 -15 0zM250.75 205.71 a7.5 7.5 0 1 0 15 0 a7.5 7.5 0 1 0 -15 0zM250.75 280.71 a7.5 7.5 0 1 0 15 0 a7.5 7.5 0 1 0 -15 0zM380.66 55.71 a7.5 7.5 0 1 0 15 0 a7.5 7.5 0 1 0 -15 0zM445.61 93.21 a7.5 7.5 0 1 0 15 0 a7.5 7.5 0 1 0 -15 0zM445.61 168.21 a7.5 7.5 0 1 0 15 0 a7.5 7.5 0 1 0 -15 0zM380.66 205.71 a7.5 7.5 0 1 0 15 0 a7.5 7.5 0 1 0 -15 0zM315.7 393.21 a7.5 7.5 0 1 0 15 0 a7.5 7.5 0 1 0 -15 0zM380.66 430.71 a7.5 7.5 0 1 0 15 0 a7.5 7.5 0 1 0 -15 0zM380.66 505.71 a7.5 7.5 0 1 0 15 0 a7.5 7.5 0 1 0 -15 0zM315.7 543.21 a7.5 7.5 0 1 0 15 0 a7.5 7.5 0 1 0 -15 0zM250.75 505.71 a7.5 7.5 0 1 0 15 0 a7.5 7.5 0 1 0 -15 0zM250.75 430.71 a7.5 7.5 0 1 0 15 0 a7.5 7.5 0 1 0 -15 0zM445.61 393.21 a7.5 7.5 0 1 0 15 0 a7.5 7.5 0 1 0 -15 0zM510.57 430.71 a7.5 7.5 0 1 0 15 0 a7.5 7.5 0 1 0 -15 0zM510.57 505.71 a7.5 7.5 0 1 0 15 0 a7.5 7.5 0 1 0 -15 0zM445.61 543.21 a7.5 7.5 0 1 0 15 0 a7.5 7.5 0 1 0 -15 0zM575.52 -56.79 a7.5 7.5 0 1 0 15 0 a7.5 7.5 0 1 0 -15 0zM640.47 -19.29 a7.5 7.5 0 1 0 15 0 a7.5 7.5 0 1 0 -15 0zM640.47 55.71 a7.5 7.5 0 1 0 15 0 a7.5 7.5 0 1 0 -15 0zM575.52 93.21 a7.5 7.5 0 1 0 15 0 a7.5 7.5 0 1 0 -15 0zM510.57 55.71 a7.5 7.5 0 1 0 15 0 a7.5 7.5 0 1 0 -15 0zM510.57 -19.29 a7.5 7.5 0 1 0 15 0 a7.5 7.5 0 1 0 -15 0zM705.43 93.21 a7.5 7.5 0 1 0 15 0 a7.5 7.5 0 1 0 -15 0zM705.43 168.21 a7.5 7.5 0 1 0 15 0 a7.5 7.5 0 1 0 -15 0zM640.47 205.71 a7.5 7.5 0 1 0 15 0 a7.5 7.5 0 1 0 -15 0zM575.52 168.21 a7.5 7.5 0 1 0 15 0 a7.5 7.5 0 1 0 -15 0zM640.47 280.71 a7.5 7.5 0 1 0 15 0 a7.5 7.5 0 1 0 -15 0zM575.52 318.21 a7.5 7.5 0 1 0 15 0 a7.5 7.5 0 1 0 -15 0zM510.57 280.71 a7.5 7.5 0 1 0 15 0 a7.5 7.5 0 1 0 -15 0zM510.57 205.71 a7.5 7.5 0 1 0 15 0 a7.5 7.5 0 1 0 -15 0zM575.52 393.21 a7.5 7.5 0 1 0 15 0 a7.5 7.5 0 1 0 -15 0zM640.47 430.71 a7.5 7.5 0 1 0 15 0 a7.5 7.5 0 1 0 -15 0zM640.47 505.71 a7.5 7.5 0 1 0 15 0 a7.5 7.5 0 1 0 -15 0zM575.52 543.21 a7.5 7.5 0 1 0 15 0 a7.5 7.5 0 1 0 -15 0zM705.43 -56.79 a7.5 7.5 0 1 0 15 0 a7.5 7.5 0 1 0 -15 0zM770.38 -19.29 a7.5 7.5 0 1 0 15 0 a7.5 7.5 0 1 0 -15 0zM770.38 55.71 a7.5 7.5 0 1 0 15 0 a7.5 7.5 0 1 0 -15 0zM835.34 93.21 a7.5 7.5 0 1 0 15 0 a7.5 7.5 0 1 0 -15 0zM835.34 168.21 a7.5 7.5 0 1 0 15 0 a7.5 7.5 0 1 0 -15 0zM770.38 205.71 a7.5 7.5 0 1 0 15 0 a7.5 7.5 0 1 0 -15 0zM770.38 280.71 a7.5 7.5 0 1 0 15 0 a7.5 7.5 0 1 0 -15 0zM835.34 318.21 a7.5 7.5 0 1 0 15 0 a7.5 7.5 0 1 0 -15 0zM835.34 393.21 a7.5 7.5 0 1 0 15 0 a7.5 7.5 0 1 0 -15 0zM770.38 430.71 a7.5 7.5 0 1 0 15 0 a7.5 7.5 0 1 0 -15 0zM705.43 393.21 a7.5 7.5 0 1 0 15 0 a7.5 7.5 0 1 0 -15 0zM705.43 318.21 a7.5 7.5 0 1 0 15 0 a7.5 7.5 0 1 0 -15 0zM900.29 280.71 a7.5 7.5 0 1 0 15 0 a7.5 7.5 0 1 0 -15 0zM965.24 318.21 a7.5 7.5 0 1 0 15 0 a7.5 7.5 0 1 0 -15 0zM965.24 393.21 a7.5 7.5 0 1 0 15 0 a7.5 7.5 0 1 0 -15 0zM900.29 430.71 a7.5 7.5 0 1 0 15 0 a7.5 7.5 0 1 0 -15 0zM835.33 393.21 a7.5 7.5 0 1 0 15 0 a7.5 7.5 0 1 0 -15 0zM835.33 318.21 a7.5 7.5 0 1 0 15 0 a7.5 7.5 0 1 0 -15 0zM900.29 505.71 a7.5 7.5 0 1 0 15 0 a7.5 7.5 0 1 0 -15 0zM835.33 543.21 a7.5 7.5 0 1 0 15 0 a7.5 7.5 0 1 0 -15 0zM770.38 505.71 a7.5 7.5 0 1 0 15 0 a7.5 7.5 0 1 0 -15 0zM965.24 -56.79 a7.5 7.5 0 1 0 15 0 a7.5 7.5 0 1 0 -15 0zM1030.2 -19.29 a7.5 7.5 0 1 0 15 0 a7.5 7.5 0 1 0 -15 0zM1030.2 55.71 a7.5 7.5 0 1 0 15 0 a7.5 7.5 0 1 0 -15 0zM965.24 93.21 a7.5 7.5 0 1 0 15 0 a7.5 7.5 0 1 0 -15 0zM900.29 55.71 a7.5 7.5 0 1 0 15 0 a7.5 7.5 0 1 0 -15 0zM900.29 -19.29 a7.5 7.5 0 1 0 15 0 a7.5 7.5 0 1 0 -15 0zM965.24 168.21 a7.5 7.5 0 1 0 15 0 a7.5 7.5 0 1 0 -15 0zM1030.2 205.71 a7.5 7.5 0 1 0 15 0 a7.5 7.5 0 1 0 -15 0zM1030.2 280.71 a7.5 7.5 0 1 0 15 0 a7.5 7.5 0 1 0 -15 0zM900.29 205.71 a7.5 7.5 0 1 0 15 0 a7.5 7.5 0 1 0 -15 0zM1095.15 318.21 a7.5 7.5 0 1 0 15 0 a7.5 7.5 0 1 0 -15 0zM1095.15 393.21 a7.5 7.5 0 1 0 15 0 a7.5 7.5 0 1 0 -15 0zM1030.2 430.71 a7.5 7.5 0 1 0 15 0 a7.5 7.5 0 1 0 -15 0zM1030.2 505.71 a7.5 7.5 0 1 0 15 0 a7.5 7.5 0 1 0 -15 0zM965.24 543.21 a7.5 7.5 0 1 0 15 0 a7.5 7.5 0 1 0 -15 0zM1095.15 543.21 a7.5 7.5 0 1 0 15 0 a7.5 7.5 0 1 0 -15 0zM1095.15 618.21 a7.5 7.5 0 1 0 15 0 a7.5 7.5 0 1 0 -15 0zM1030.2 655.71 a7.5 7.5 0 1 0 15 0 a7.5 7.5 0 1 0 -15 0zM965.24 618.21 a7.5 7.5 0 1 0 15 0 a7.5 7.5 0 1 0 -15 0zM1095.15 -56.79 a7.5 7.5 0 1 0 15 0 a7.5 7.5 0 1 0 -15 0zM1160.1 -19.29 a7.5 7.5 0 1 0 15 0 a7.5 7.5 0 1 0 -15 0zM1160.1 55.71 a7.5 7.5 0 1 0 15 0 a7.5 7.5 0 1 0 -15 0zM1095.15 93.21 a7.5 7.5 0 1 0 15 0 a7.5 7.5 0 1 0 -15 0zM1095.15 168.21 a7.5 7.5 0 1 0 15 0 a7.5 7.5 0 1 0 -15 0zM1160.1 205.71 a7.5 7.5 0 1 0 15 0 a7.5 7.5 0 1 0 -15 0zM1160.1 280.71 a7.5 7.5 0 1 0 15 0 a7.5 7.5 0 1 0 -15 0zM1225.06 318.21 a7.5 7.5 0 1 0 15 0 a7.5 7.5 0 1 0 -15 0zM1225.06 393.21 a7.5 7.5 0 1 0 15 0 a7.5 7.5 0 1 0 -15 0zM1160.1 430.71 a7.5 7.5 0 1 0 15 0 a7.5 7.5 0 1 0 -15 0zM1160.1 505.71 a7.5 7.5 0 1 0 15 0 a7.5 7.5 0 1 0 -15 0zM1225.06 543.21 a7.5 7.5 0 1 0 15 0 a7.5 7.5 0 1 0 -15 0zM1225.06 618.21 a7.5 7.5 0 1 0 15 0 a7.5 7.5 0 1 0 -15 0zM1160.1 655.71 a7.5 7.5 0 1 0 15 0 a7.5 7.5 0 1 0 -15 0zM1290.01 55.71 a7.5 7.5 0 1 0 15 0 a7.5 7.5 0 1 0 -15 0zM1354.96 93.21 a7.5 7.5 0 1 0 15 0 a7.5 7.5 0 1 0 -15 0zM1354.96 168.21 a7.5 7.5 0 1 0 15 0 a7.5 7.5 0 1 0 -15 0zM1290.01 205.71 a7.5 7.5 0 1 0 15 0 a7.5 7.5 0 1 0 -15 0zM1225.06 168.21 a7.5 7.5 0 1 0 15 0 a7.5 7.5 0 1 0 -15 0zM1225.06 93.21 a7.5 7.5 0 1 0 15 0 a7.5 7.5 0 1 0 -15 0zM1290.01 280.71 a7.5 7.5 0 1 0 15 0 a7.5 7.5 0 1 0 -15 0zM1290.01 505.71 a7.5 7.5 0 1 0 15 0 a7.5 7.5 0 1 0 -15 0zM1354.96 543.21 a7.5 7.5 0 1 0 15 0 a7.5 7.5 0 1 0 -15 0zM1354.96 618.21 a7.5 7.5 0 1 0 15 0 a7.5 7.5 0 1 0 -15 0zM1290.01 655.71 a7.5 7.5 0 1 0 15 0 a7.5 7.5 0 1 0 -15 0zM1354.97 -56.79 a7.5 7.5 0 1 0 15 0 a7.5 7.5 0 1 0 -15 0zM1419.92 -19.29 a7.5 7.5 0 1 0 15 0 a7.5 7.5 0 1 0 -15 0zM1419.92 55.71 a7.5 7.5 0 1 0 15 0 a7.5 7.5 0 1 0 -15 0zM1354.97 93.21 a7.5 7.5 0 1 0 15 0 a7.5 7.5 0 1 0 -15 0zM1290.01 -19.29 a7.5 7.5 0 1 0 15 0 a7.5 7.5 0 1 0 -15 0zM1354.97 168.21 a7.5 7.5 0 1 0 15 0 a7.5 7.5 0 1 0 -15 0zM1419.92 205.71 a7.5 7.5 0 1 0 15 0 a7.5 7.5 0 1 0 -15 0zM1419.92 280.71 a7.5 7.5 0 1 0 15 0 a7.5 7.5 0 1 0 -15 0zM1354.97 318.21 a7.5 7.5 0 1 0 15 0 a7.5 7.5 0 1 0 -15 0zM1484.87 318.21 a7.5 7.5 0 1 0 15 0 a7.5 7.5 0 1 0 -15 0zM1484.87 393.21 a7.5 7.5 0 1 0 15 0 a7.5 7.5 0 1 0 -15 0zM1419.92 430.71 a7.5 7.5 0 1 0 15 0 a7.5 7.5 0 1 0 -15 0zM1354.97 393.21 a7.5 7.5 0 1 0 15 0 a7.5 7.5 0 1 0 -15 0zM1419.92 505.71 a7.5 7.5 0 1 0 15 0 a7.5 7.5 0 1 0 -15 0zM1484.87 543.21 a7.5 7.5 0 1 0 15 0 a7.5 7.5 0 1 0 -15 0zM1484.87 618.21 a7.5 7.5 0 1 0 15 0 a7.5 7.5 0 1 0 -15 0zM1419.92 655.71 a7.5 7.5 0 1 0 15 0 a7.5 7.5 0 1 0 -15 0zM1354.97 618.21 a7.5 7.5 0 1 0 15 0 a7.5 7.5 0 1 0 -15 0zM1354.97 543.21 a7.5 7.5 0 1 0 15 0 a7.5 7.5 0 1 0 -15 0zM1549.83 55.71 a7.5 7.5 0 1 0 15 0 a7.5 7.5 0 1 0 -15 0zM1614.78 93.21 a7.5 7.5 0 1 0 15 0 a7.5 7.5 0 1 0 -15 0zM1614.78 168.21 a7.5 7.5 0 1 0 15 0 a7.5 7.5 0 1 0 -15 0zM1549.83 205.71 a7.5 7.5 0 1 0 15 0 a7.5 7.5 0 1 0 -15 0zM1484.87 168.21 a7.5 7.5 0 1 0 15 0 a7.5 7.5 0 1 0 -15 0zM1484.87 93.21 a7.5 7.5 0 1 0 15 0 a7.5 7.5 0 1 0 -15 0zM1549.83 280.71 a7.5 7.5 0 1 0 15 0 a7.5 7.5 0 1 0 -15 0zM1614.78 318.21 a7.5 7.5 0 1 0 15 0 a7.5 7.5 0 1 0 -15 0zM1614.78 393.21 a7.5 7.5 0 1 0 15 0 a7.5 7.5 0 1 0 -15 0zM1549.83 430.71 a7.5 7.5 0 1 0 15 0 a7.5 7.5 0 1 0 -15 0zM1549.83 505.71 a7.5 7.5 0 1 0 15 0 a7.5 7.5 0 1 0 -15 0z" fill="#03305d"></path><path d="M43.64 25.15L86.95 50.15L86.95 100.15L43.64 125.15L0.34 100.15L0.34 50.15zM43.64 475.15L86.95 500.15L86.95 550.15L43.64 575.15L0.34 550.15L0.34 500.15zM86.95 -49.85L130.25 -24.85L130.25 25.15L86.95 50.15L43.64 25.15L43.64 -24.85zM130.25 475.15L173.55 500.15L173.55 550.15L130.25 575.15L86.95 550.15L86.95 500.15zM216.85 25.15L260.15 50.15L260.15 100.15L216.85 125.15L173.55 100.15L173.55 50.15zM303.46 175.15L346.76 200.15L346.76 250.15L303.46 275.15L260.15 250.15L260.15 200.15zM433.37 250.15L476.67 275.15L476.67 325.15L433.37 350.15L390.06 325.15L390.06 275.15zM519.97 -49.85L563.27 -24.85L563.27 25.15L519.97 50.15L476.67 25.15L476.67 -24.85zM563.27 325.15L606.58 350.15L606.58 400.15L563.27 425.15L519.97 400.15L519.97 350.15zM563.27 475.15L606.58 500.15L606.58 550.15L563.27 575.15L519.97 550.15L519.97 500.15zM693.18 -49.85L736.48 -24.85L736.48 25.15L693.18 50.15L649.88 25.15L649.88 -24.85zM736.48 175.15L779.79 200.15L779.79 250.15L736.48 275.15L693.18 250.15L693.18 200.15zM693.18 400.15L736.48 425.15L736.48 475.15L693.18 500.15L649.88 475.15L649.88 425.15zM779.79 400.15L823.09 425.15L823.09 475.15L779.79 500.15L736.48 475.15L736.48 425.15zM823.09 475.15L866.39 500.15L866.39 550.15L823.09 575.15L779.79 550.15L779.79 500.15zM866.39 250.15L909.69 275.15L909.69 325.15L866.39 350.15L823.09 325.15L823.09 275.15zM996.3 325.15L1039.6 350.15L1039.6 400.15L996.3 425.15L953 400.15L953 350.15zM1039.6 -49.85L1082.9 -24.85L1082.9 25.15L1039.6 50.15L996.3 25.15L996.3 -24.85zM1082.9 25.15L1126.2 50.15L1126.2 100.15L1082.9 125.15L1039.6 100.15L1039.6 50.15zM1126.2 -49.85L1169.51 -24.85L1169.51 25.15L1126.2 50.15L1082.9 25.15L1082.9 -24.85zM1169.51 25.15L1212.81 50.15L1212.81 100.15L1169.51 125.15L1126.2 100.15L1126.2 50.15zM1126.2 250.15L1169.51 275.15L1169.51 325.15L1126.2 350.15L1082.9 325.15L1082.9 275.15zM1126.2 400.15L1169.51 425.15L1169.51 475.15L1126.2 500.15L1082.9 475.15L1082.9 425.15zM1212.81 -49.85L1256.11 -24.85L1256.11 25.15L1212.81 50.15L1169.51 25.15L1169.51 -24.85zM1342.72 25.15L1386.02 50.15L1386.02 100.15L1342.72 125.15L1299.41 100.15L1299.41 50.15zM1342.72 325.15L1386.02 350.15L1386.02 400.15L1342.72 425.15L1299.41 400.15L1299.41 350.15zM1429.32 25.15L1472.63 50.15L1472.63 100.15L1429.32 125.15L1386.02 100.15L1386.02 50.15zM1386.02 100.15L1429.32 125.15L1429.32 175.15L1386.02 200.15L1342.72 175.15L1342.72 125.15zM1429.32 175.15L1472.63 200.15L1472.63 250.15L1429.32 275.15L1386.02 250.15L1386.02 200.15zM1386.02 400.15L1429.32 425.15L1429.32 475.15L1386.02 500.15L1342.72 475.15L1342.72 425.15zM1429.32 475.15L1472.63 500.15L1472.63 550.15L1429.32 575.15L1386.02 550.15L1386.02 500.15z" stroke="rgba(6, 80, 156, 0.93)" stroke-width="2"></path></g><defs><mask id="SvgjsMask1000"><rect width="1440" height="560" fill="#ffffff"></rect></mask></defs></svg>