<svg xmlns="http://www.w3.org/2000/svg" version="1.1" xmlns:xlink="http://www.w3.org/1999/xlink" xmlns:svgjs="http://svgjs.dev/svgjs" width="1440" height="560" preserveAspectRatio="none" viewBox="0 0 1440 560"><g mask="url(&quot;#SvgjsMask1006&quot;)" fill="none"><rect width="1440" height="560" x="0" y="0" fill="rgba(183, 195, 208, 1)"></rect><path d="M0,282.34C63.14,278.594,132.173,322.65,185.787,289.091C239.37,255.551,235.744,177.14,260.791,119.099C285.179,62.585,333.196,13.913,331.085,-47.603C328.901,-111.263,287.387,-164.963,249.293,-216.014C208.652,-270.478,165.669,-325.072,103.522,-352.564C36.686,-382.13,-39.01,-391.908,-110.11,-375C-183.202,-357.619,-250.329,-316.225,-296.97,-257.326C-342.577,-199.732,-355.656,-125.353,-365.456,-52.545C-375.18,19.695,-383.374,94.948,-353.327,161.359C-323.233,227.875,-269.588,288.362,-200.518,312.012C-135.273,334.352,-68.843,286.425,0,282.34" fill="#889cb1"></path><path d="M1440 976.364C1521.939 986.528 1612.134 980.213 1678.398 930.954 1743.554 882.518 1751.897 791.6759999999999 1786.951 718.447 1822.7939999999999 643.569 1889.405 578.743 1886.714 495.772 1883.942 410.31 1833.019 332.289 1772.469 271.914 1714.3319999999999 213.945 1635.056 187.02999999999997 1555.756 165.77100000000002 1478.047 144.938 1391.865 114.83600000000001 1319.776 150.55399999999997 1248.782 185.72899999999998 1243.513 284.922 1192.658 345.677 1143.095 404.889 1055.9769999999999 429.102 1026.782 500.588 994.957 578.515 987.2719999999999 674.523 1028.354 747.992 1068.988 820.659 1164.001 835.7909999999999 1236.804 876.1800000000001 1304.205 913.572 1363.508 966.876 1440 976.364" fill="#e6eaef"></path></g><defs><mask id="SvgjsMask1006"><rect width="1440" height="560" fill="#ffffff"></rect></mask></defs></svg>